<svg width="528" height="528" viewBox="0 0 528 528" fill="none" xmlns="http://www.w3.org/2000/svg">
<path d="M57.3948 74.6182C68.8439 73.7831 83.6615 77.2793 94.5337 80.8923C134.745 94.2552 176.759 125.241 205.417 156.408C218.824 171.025 230.85 186.85 241.343 203.681C248.767 215.619 255.147 228.416 261.285 241.052C261.986 242.498 264.66 249.402 265.653 249.697C266.552 249.039 267.455 245.93 268.009 244.695C269.757 240.88 271.562 237.091 273.423 233.328C281.24 217.313 290.245 201.905 300.362 187.235C307.568 176.778 317.236 165.014 326.084 155.765C361.672 118.637 407.903 85.9413 459.045 75.5876C472.359 72.8921 490.035 75.0232 501.296 82.8855C511.717 90.2445 518.786 101.444 520.944 114.017C521.434 116.788 522.369 122.124 522.47 124.87C523.591 155.548 510.827 184.486 495.446 210.308C490.888 217.96 485.497 224.951 480.503 232.109C481.086 237.697 481.362 243.312 481.333 248.929C481.259 254.959 480.936 259.968 479.408 265.833C475.138 282.219 467.592 297.126 455.431 308.965C441.326 322.817 423.122 331.74 403.533 334.401C400.628 334.798 396.982 335.388 394.128 335.349C396.536 338.325 400.022 341.065 402.507 343.831C409.406 351.496 417.362 364.258 419.85 374.155C420.603 377.551 421.735 381.408 422.15 384.79C423.962 399.583 421.01 414.428 411.876 426.375C404.451 436.01 393.502 442.298 381.439 443.855C368.566 445.5 354.781 441.725 343.507 435.352C297.732 409.483 280.943 347.755 268.027 300.516C267.555 298.781 266.119 291.606 265.418 291.067L264.959 291.351C264.371 292.71 264.498 293.524 264.258 294.942C263.812 297.598 262.902 300.3 262.242 302.945C260.517 310.048 258.645 317.114 256.63 324.14C245.575 362.546 231.773 401.69 199.16 427.747C176.619 446.461 139.904 452.59 119.536 427.169C100.892 403.902 106.802 367.555 125.701 346.147C128.44 343.042 134.241 337.564 137.441 335.218C137.202 335.226 136.963 335.236 136.724 335.246C107.367 334.171 77.4832 318.287 62.5755 292.64C53.4211 276.89 48.8351 261.135 49.7751 243.088C49.9741 239.264 49.8004 236.028 50.6769 232.405C49.4892 230.369 47.2434 227.478 45.8288 225.486C43.0217 221.557 40.3263 217.55 37.7456 213.469C23.2185 190.297 10.6279 162.034 8.34453 134.329C7.06395 118.792 11.3878 100.867 21.7585 89.1281C28.6933 81.2785 38.6134 77.2368 48.7519 75.2684C50.5083 74.9098 55.3949 74.7424 57.3948 74.6182ZM278.066 267.777C279.513 271.041 281.696 273.232 284.004 275.931C294.703 288.469 311.12 299.377 327.419 302.478C333.509 303.638 347.928 303.528 353.631 301.545C380.668 295.932 403.897 283.016 425.734 266.142C440.362 254.836 451.62 242.251 464.173 228.919C459.445 211.781 451.497 200.306 435.806 191.167C419.587 181.72 405.41 181.806 387.381 182.096C381.184 183.337 373.606 184.134 367.571 185.897C329.074 197.144 288.804 227.74 278.066 267.777ZM187.204 303.04C191.156 303.257 196.372 303.355 200.225 302.899C215.901 301.045 230.319 291.537 241.667 281.015C244.466 278.422 251.181 270.948 252.96 267.637C245.899 239.725 220.925 215.069 197.066 200.399C178.293 188.856 156.191 181.345 133.981 181.877C131.118 181.948 127.664 181.915 124.844 182.295C108.194 184.537 93.1763 190.133 81.2465 202.668C75.5298 208.667 71.1697 215.825 68.4619 223.656C67.9878 224.995 67.1906 226.774 67.3038 228.194C67.6114 232.054 91.7594 254.832 95.7552 258.472C98.4932 260.947 101.33 263.309 104.26 265.552C125.778 281.779 149.277 295.956 176.103 301.455C178.87 302.022 184.552 303.079 187.204 303.04ZM56.3656 213.911C56.9688 211.615 58.4183 209.066 59.5521 206.944C65.726 195.521 74.9657 186.048 86.2308 179.59C110.481 165.405 138.974 163.66 165.822 170.711L167.256 171.091C181.257 175.025 194.61 180.978 206.894 188.764C209.054 190.123 211.23 191.491 213.328 192.944C215.509 194.455 217.187 196.26 219.587 197.389C217.929 194.606 215.881 192.481 213.958 189.934C211.2 186.281 208.479 182.88 205.556 179.365C184.992 154.46 160.448 133.131 132.919 116.242C115.143 105.192 96.2677 95.9828 75.7848 91.4822C69.0734 90.0075 61.925 89.825 55.0778 90.0849C30.3941 91.3703 21.9934 112.273 23.7079 134.443C25.5982 158.885 36.1118 182.388 48.9328 202.993C50.6336 205.693 54.2182 211.912 56.3656 213.911ZM466.097 248.962C459.896 255.822 453.879 262.195 446.933 268.256C424.713 287.644 398.756 304.44 370.291 312.799C367.251 313.691 361.86 314.443 359.226 315.689L359.277 316.029C360.466 316.648 361.422 316.769 362.729 317.05C369.069 318.762 373.619 319.133 379.969 319.628C397.763 321.02 414.194 318.916 429.817 309.666C446.683 299.681 459.089 282.722 464.189 263.806C464.692 261.94 466.916 250.442 466.409 249.19L466.097 248.962ZM64.4366 248.884C65.043 253.625 65.3594 258.769 66.468 263.314C76.6655 305.136 117.474 325.955 158.207 318.96C161.525 318.39 164.367 317.7 167.641 316.9C169.384 316.459 170.422 316.204 172.094 315.529C141.448 309.818 108.303 289.271 85.0789 268.823C81.7632 265.931 78.5276 262.945 75.3767 259.875C73.738 258.248 65.6749 249.148 64.4366 248.884ZM397.882 419.466C406.073 409.669 408.233 399.39 406.942 386.816C404.972 370.605 395.624 356.923 383.496 346.533C369.025 334.138 352.339 330.572 334.87 324.691C319.646 319.566 303.871 311.708 290.66 302.607C288.727 301.277 285.035 297.322 283.135 296.788C289.472 321.301 296.028 345.113 306.39 367.749C320.105 397.704 346.211 434.888 383.751 428.211C387.817 427.486 395.358 422.689 397.882 419.466ZM475.022 213.654C476.698 211.872 482.153 202.802 483.612 200.365C496.818 178.321 508.159 151.789 507.246 125.643C506.89 115.483 503.711 104.37 495.895 97.5191C486.704 89.4648 478.314 89.5012 466.994 90.048L466.305 90.0825C454.676 90.8782 440.687 95.6157 429.938 100.279C393.339 116.159 359.411 141.399 332.939 171.199C330.317 174.151 312.917 194.989 312.595 196.434L312.843 196.64C314.32 196.101 317.153 193.293 318.716 192.264C334.679 181.745 354.75 172.047 373.766 169.034C379.755 167.983 384.074 167.326 390.094 166.938C411.208 165.577 431.898 169.979 449.31 182.41C462.219 191.435 467.994 199.868 475.022 213.654ZM246.884 297.211C226.253 315.671 198.47 323.606 172.879 332.013C158.634 336.693 143.662 347.387 134.762 359.463C128.089 368.352 124.186 379.012 123.541 390.109C123 399.609 125.376 413.361 132.954 419.912C140.242 427.484 148.476 429.325 158.657 429.007C173.249 428.554 185.893 419.646 196.079 409.929C221.488 385.695 233.863 350.148 242.476 316.8C243.766 311.811 244.984 306.804 246.131 301.782C246.368 300.787 247.473 297.799 246.884 297.211Z" fill="#FEFEFE"/>
</svg>
